# xmcd
#
# Track frame offsets:
#	150
#	3777
#	21632
#	40902
#	59075
#	74935
#	94067
#	111230
#	132960
#	153242
#	168520
#
# Disc length: 2479
#
# Revision: 3
# Processed by: cddbd v1.5.1PL0 Copyright (c) Steve Scherf et al.
# Submitted via: CDex 1.50Beta7
# Normalized: r2:TRMNUM
#
DISCID=9c09ad0b
DTITLE=Yuki 徐懷鈺 - 天使
DYEAR=1999
DGENRE=Pop
TTITLE0=衣櫥遊行A parade in the closet (Radio Version)
TTITLE1=Call Me
TTITLE2=I Can't Cry
TTITLE3=等不及 Can't wait
TTITLE4=天使 The angel
TTITLE5=友情卡片(P.S. I love you) Friendship card
TTITLE6=冒險汽球 Adventure balloon
TTITLE7=他忘了回來 He forgot to come back
TTITLE8=失戀布丁 Heartbreaking Pudding
TTITLE9=Give Me Five
TTITLE10=Perfect Life
EXTD=YEAR: 1999
EXTT0=
EXTT1=
EXTT2=
EXTT3=
EXTT4=
EXTT5=
EXTT6=
EXTT7=
EXTT8=
EXTT9=
EXTT10=
PLAYORDER=
